<svg width="38" height="38" viewBox="0 0 38 38" fill="none" xmlns="http://www.w3.org/2000/svg">
<path d="M15.9441 4.46516L4.97168 13.2526C3.73668 14.2343 2.94501 16.3085 3.21418 17.8602L5.32001 30.4635C5.70001 32.7118 7.85335 34.5327 10.1333 34.5327H27.8666C30.1308 34.5327 32.3 32.696 32.68 30.4635L34.7858 17.8602C35.0391 16.3085 34.2475 14.2343 33.0283 13.2526L22.0558 4.48101C20.3616 3.11934 17.6225 3.11933 15.9441 4.46516Z" stroke="currentColor" stroke-width="3" stroke-linecap="round" stroke-linejoin="round"/>
<path d="M19 24.5417C21.1861 24.5417 22.9583 22.7694 22.9583 20.5833C22.9583 18.3972 21.1861 16.625 19 16.625C16.8139 16.625 15.0416 18.3972 15.0416 20.5833C15.0416 22.7694 16.8139 24.5417 19 24.5417Z" stroke="currentColor" stroke-width="3" stroke-linecap="round" stroke-linejoin="round"/>
</svg>
