<svg width="38" height="38" viewBox="0 0 38 38" fill="none" xmlns="http://www.w3.org/2000/svg">
<path d="M13.8166 21.7186C8.34174 21.7186 3.8833 17.0534 3.8833 11.3152C3.8833 5.57704 8.33769 0.911865 13.8166 0.911865C19.2955 0.911865 23.7499 5.57704 23.7499 11.3152C23.7499 17.0534 19.2914 21.7186 13.8166 21.7186ZM13.8166 4.5295C10.245 4.5295 7.33748 7.57459 7.33748 11.3152C7.33748 15.0558 10.245 18.1009 13.8166 18.1009C17.3882 18.1009 20.2957 15.0558 20.2957 11.3152C20.2957 7.57459 17.3882 4.5295 13.8166 4.5295Z" fill="currentColor"/>
<path d="M22.0128 37.9999H5.62063C2.51876 37.9999 0 35.3578 0 32.1133V28.1479C0 22.6091 4.30051 18.1008 9.59314 18.1008H18.0484C23.337 18.1008 27.6415 22.6091 27.6415 28.1479V32.1133C27.6334 35.3578 25.1147 37.9999 22.0128 37.9999ZM9.58909 21.7185C6.20375 21.7185 3.45418 24.6024 3.45418 28.1437V32.1091C3.45418 33.3602 4.42604 34.3781 5.62063 34.3781H22.0128C23.2074 34.3781 24.1792 33.3602 24.1792 32.1091V28.1437C24.1792 24.5982 21.4256 21.7185 18.0403 21.7185H9.58909Z" fill="currentColor"/>
<path d="M32.3753 36.1891C31.4196 36.1891 30.6462 35.379 30.6462 34.3781C30.6462 33.3772 31.4196 32.5672 32.3753 32.5672C33.5699 32.5672 34.5417 31.5493 34.5417 30.2982V26.3328C34.5417 22.7873 31.7881 19.9076 28.4028 19.9076H27.8237C27.0219 19.9076 26.3254 19.3308 26.1432 18.5123C25.961 17.6937 26.3376 16.854 27.0543 16.4766C29.2734 15.3187 30.6543 12.9946 30.6543 10.4076C30.6543 6.66696 27.7468 3.62187 24.1752 3.62187C23.2195 3.62187 22.446 2.81183 22.446 1.81094C22.446 0.810044 23.2195 0 24.1752 0C29.65 0 34.1084 4.66518 34.1084 10.4033C34.1084 12.8547 33.3026 15.1491 31.8853 16.9685C35.461 18.4359 38 22.0833 38 26.337V30.3025C38 33.5511 35.4772 36.1891 32.3753 36.1891Z" fill="#B8F5A3"/>
</svg>
