<svg width="38" height="38" viewBox="0 0 38 38" fill="none" xmlns="http://www.w3.org/2000/svg">
<path d="M22.5667 12.4483C22.5667 18.5432 17.8032 23.3966 12.0333 23.3966C6.26346 23.3966 1.5 18.5432 1.5 12.4483C1.5 6.35338 6.26346 1.5 12.0333 1.5C17.8032 1.5 22.5667 6.35338 22.5667 12.4483Z" stroke="currentColor" stroke-width="3"/>
<path d="M30.1665 24.8964C30.1665 31.3532 25.1194 36.4999 18.9998 36.4999C12.8801 36.4999 7.83313 31.3532 7.83313 24.8964C7.83313 18.4397 12.8801 13.293 18.9998 13.293C25.1194 13.293 30.1665 18.4397 30.1665 24.8964Z" stroke="currentColor" stroke-width="3"/>
<path d="M36.5 12.4483C36.5 18.5432 31.7365 23.3966 25.9667 23.3966C20.1968 23.3966 15.4333 18.5432 15.4333 12.4483C15.4333 6.35338 20.1968 1.5 25.9667 1.5C31.7365 1.5 36.5 6.35338 36.5 12.4483Z" stroke="currentColor" stroke-width="3"/>
</svg>
