<svg width="46" height="40" viewBox="0 0 46 40" fill="none" xmlns="http://www.w3.org/2000/svg">
<path d="M22.75 29C26.7542 29 30 25.8661 30 22C30 18.1339 26.7542 15 22.75 15C18.7458 15 15.5 18.1339 15.5 22C15.5 25.8661 18.7458 29 22.75 29Z" stroke="white" stroke-width="2" stroke-linecap="round" stroke-linejoin="round"/>
<path d="M1 30.8667V13.1333C1 10.5198 1 9.21296 1.52681 8.21471C1.99018 7.33661 2.72958 6.6227 3.63905 6.17531C4.67295 5.66667 6.02642 5.66667 8.73333 5.66667H11.282C11.5792 5.66667 11.7277 5.66667 11.8648 5.6515C12.5798 5.57242 13.2212 5.18971 13.6143 4.60754C13.6896 4.49596 13.756 4.36765 13.8889 4.1111C14.1546 3.59798 14.2875 3.34141 14.4382 3.11825C15.2243 1.95391 16.507 1.18849 17.9372 1.03031C18.2113 1 18.5083 1 19.1025 1H26.3975C26.9917 1 27.2887 1 27.5628 1.03031C28.993 1.18849 30.2757 1.95391 31.0619 3.11825C31.2124 3.34138 31.3454 3.59805 31.6112 4.1111C31.7439 4.36768 31.8103 4.49596 31.8857 4.60754C32.2789 5.18971 32.9201 5.57242 33.6352 5.6515C33.7724 5.66667 33.9208 5.66667 34.218 5.66667H36.7667C39.4736 5.66667 40.8272 5.66667 41.861 6.17531C42.7704 6.6227 43.5099 7.33661 43.9732 8.21471C44.5 9.21296 44.5 10.5198 44.5 13.1333V30.8667C44.5 33.4802 44.5 34.7871 43.9732 35.7853C43.5099 36.6634 42.7704 37.3774 41.861 37.8247C40.8272 38.3333 39.4736 38.3333 36.7667 38.3333H8.73333C6.02642 38.3333 4.67295 38.3333 3.63905 37.8247C2.72958 37.3774 1.99018 36.6634 1.52681 35.7853C1 34.7871 1 33.4802 1 30.8667Z" stroke="white" stroke-width="2" stroke-linecap="round" stroke-linejoin="round"/>
</svg>
