<svg width="24" height="24" viewBox="0 0 24 24" fill="none" xmlns="http://www.w3.org/2000/svg">
<path d="M20.9983 10C20.9862 7.82497 20.8897 6.64706 20.1213 5.87868C19.2426 5 17.8284 5 15 5H12C9.17157 5 7.75736 5 6.87868 5.87868C6 6.75736 6 8.17157 6 11V16C6 18.8284 6 20.2426 6.87868 21.1213C7.75736 22 9.17157 22 12 22H15C17.8284 22 19.2426 22 20.1213 21.1213C21 20.2426 21 18.8284 21 16V15" stroke="white" stroke-width="1.5" stroke-linecap="round"/>
<path d="M3 10V16C3 17.6569 4.34315 19 6 19M18 5C18 3.34315 16.6569 2 15 2H11C7.22876 2 5.34315 2 4.17157 3.17157C3.51839 3.82475 3.22937 4.69989 3.10149 6" stroke="white" stroke-width="1.5" stroke-linecap="round"/>
<path d="M12.0508 10.3125V16H10.8828V10.3125H12.0508ZM13.8008 10.3125V11.2305H9.16016V10.3125H13.8008ZM14.4688 10.3125H16.5898C17.0247 10.3125 17.3984 10.3776 17.7109 10.5078C18.026 10.638 18.2682 10.8307 18.4375 11.0859C18.6068 11.3411 18.6914 11.6549 18.6914 12.0273C18.6914 12.332 18.6393 12.5938 18.5352 12.8125C18.4336 13.0286 18.2891 13.2096 18.1016 13.3555C17.9167 13.4987 17.6992 13.6133 17.4492 13.6992L17.0781 13.8945H15.2344L15.2266 12.9805H16.5977C16.8034 12.9805 16.974 12.944 17.1094 12.8711C17.2448 12.7982 17.3464 12.6966 17.4141 12.5664C17.4844 12.4362 17.5195 12.2852 17.5195 12.1133C17.5195 11.931 17.4857 11.7734 17.418 11.6406C17.3503 11.5078 17.2474 11.4062 17.1094 11.3359C16.9714 11.2656 16.7982 11.2305 16.5898 11.2305H15.6406V16H14.4688V10.3125ZM17.6484 16L16.3516 13.4648L17.5898 13.457L18.9023 15.9453V16H17.6484Z" fill="white"/>
</svg>
