<svg width="26" height="26" viewBox="0 0 26 26" fill="none" xmlns="http://www.w3.org/2000/svg">
<path d="M1.74878 1.75L24.2488 24.25M10.3041 10.3921C9.65083 11.067 9.24878 11.9865 9.24878 13C9.24878 15.0711 10.9278 16.75 12.9988 16.75C14.0269 16.75 14.9584 16.3363 15.6358 15.6663M6.12378 6.30894C3.74965 7.87543 1.94131 10.2299 1.07129 13C2.6641 18.0714 7.40199 21.75 12.999 21.75C15.4851 21.75 17.8018 21.0242 19.7485 19.773M11.7488 4.31174C12.16 4.27091 12.5771 4.25 12.999 4.25C18.5961 4.25 23.334 7.92864 24.9268 13C24.5759 14.1175 24.0721 15.1672 23.4403 16.125" stroke="#847E7E" stroke-width="2" stroke-linecap="round" stroke-linejoin="round"/>
</svg>
