<svg width="32" height="32" viewBox="0 0 32 32" fill="none" xmlns="http://www.w3.org/2000/svg">
<path d="M22.4701 13.2196C24.1729 13.2196 25.5534 11.8392 25.5534 10.1363C25.5534 8.43343 24.1729 7.05298 22.4701 7.05298C20.7672 7.05298 19.3867 8.43343 19.3867 10.1363C19.3867 11.8392 20.7672 13.2196 22.4701 13.2196Z" stroke="white" stroke-width="1.5"/>
<path d="M0.886719 17.074L3.58709 14.7113C4.99196 13.4821 7.10932 13.5525 8.42931 14.8725L15.0426 21.4858C16.102 22.5454 17.7698 22.6898 18.9958 21.8282L19.4555 21.5052C21.2195 20.2654 23.6061 20.4091 25.2088 21.8515L30.1784 26.324" stroke="white" stroke-width="1.5" stroke-linecap="round"/>
<path d="M31.7201 16.303C31.7201 23.5704 31.7201 27.2043 29.4623 29.4619C27.2047 31.7197 23.5708 31.7197 16.3034 31.7197C9.03589 31.7197 5.40215 31.7197 3.14444 29.4619C0.886719 27.2043 0.886719 23.5704 0.886719 16.303C0.886719 9.03553 0.886719 5.40179 3.14444 3.14408C5.40215 0.886352 9.03589 0.886353 16.3034 0.886353C23.5708 0.886353 27.2047 0.886352 29.4623 3.14408C30.9636 4.64526 31.4666 6.75478 31.6351 10.1364" stroke="white" stroke-width="1.5" stroke-linecap="round"/>
</svg>
