<svg width="20" height="21" viewBox="0 0 20 21" fill="none" xmlns="http://www.w3.org/2000/svg">
<path d="M1 20.0001L12 20V4.98924C12 3.6252 12 2.94318 11.7187 2.47045C11.472 2.05596 11.0838 1.74457 10.6257 1.59368C10.1032 1.42159 9.4374 1.56954 8.1058 1.86544L5.50582 2.44322C4.6117 2.64191 4.16464 2.74126 3.83093 2.98167C3.53658 3.19373 3.30545 3.48186 3.1623 3.8152C3 4.19312 3 4.65108 3 5.56702V20.0001M11.994 4.00007H13.8C14.9201 4.00007 15.4802 4.00007 15.908 4.21805C16.2843 4.4098 16.5903 4.71576 16.782 5.09209C17 5.51991 17 6.07996 17 7.20007V20.0001H19M9 11.0001H9.01" stroke="#006C17" stroke-width="2" stroke-linecap="round" stroke-linejoin="round"/>
</svg>
