<svg width="25" height="21" viewBox="0 0 25 21" fill="none" xmlns="http://www.w3.org/2000/svg">
<path d="M9.125 9.375C10.3676 9.375 11.375 8.36764 11.375 7.125C11.375 5.88236 10.3676 4.875 9.125 4.875C7.88236 4.875 6.875 5.88236 6.875 7.125C6.875 8.36764 7.88236 9.375 9.125 9.375Z" stroke="#006C17" stroke-width="1.5"/>
<path d="M13.625 13.875C13.625 15.1177 13.625 16.125 9.125 16.125C4.625 16.125 4.625 15.1177 4.625 13.875C4.625 12.6323 6.63972 11.625 9.125 11.625C11.6102 11.625 13.625 12.6323 13.625 13.875Z" stroke="#006C17" stroke-width="1.5"/>
<path d="M1.25 10.5C1.25 6.25736 1.25 4.13604 2.56802 2.81802C3.88604 1.5 6.00736 1.5 10.25 1.5H14.75C18.9926 1.5 21.114 1.5 22.4319 2.81802C23.75 4.13604 23.75 6.25736 23.75 10.5C23.75 14.7426 23.75 16.864 22.4319 18.1819C21.114 19.5 18.9926 19.5 14.75 19.5H10.25C6.00736 19.5 3.88604 19.5 2.56802 18.1819C1.25 16.864 1.25 14.7426 1.25 10.5Z" stroke="#006C17" stroke-width="1.5"/>
<path d="M20.375 10.5H15.875" stroke="#006C17" stroke-width="1.5" stroke-linecap="round"/>
<path d="M20.375 7.125H14.75" stroke="#006C17" stroke-width="1.5" stroke-linecap="round"/>
<path d="M20.375 13.875H17" stroke="#006C17" stroke-width="1.5" stroke-linecap="round"/>
</svg>
