<svg width="29" height="25" viewBox="0 0 29 25" fill="none" xmlns="http://www.w3.org/2000/svg">
<path d="M14.5001 9.75V15.25M12.1181 11.125L16.8812 13.875M16.8808 11.125L12.1177 13.875" stroke="#006C17" stroke-width="1.5" stroke-linecap="round"/>
<path d="M7.25691 9.75V15.25M4.87483 11.125L9.63797 13.875M9.63765 11.125L4.87451 13.875" stroke="#006C17" stroke-width="1.5" stroke-linecap="round"/>
<path d="M21.7438 9.75V15.25M19.3616 11.125L24.1247 13.875M24.1245 11.125L19.3613 13.875" stroke="#006C17" stroke-width="1.5" stroke-linecap="round"/>
<path d="M28.25 12.5C28.25 17.6854 28.25 20.2782 26.639 21.889C25.0282 23.5 22.4354 23.5 17.25 23.5H11.75C6.56455 23.5 3.97183 23.5 2.36091 21.889C0.75 20.2782 0.75 17.6854 0.75 12.5C0.75 7.31455 0.75 4.72183 2.36091 3.11091C3.97183 1.5 6.56455 1.5 11.75 1.5H17.25C22.4354 1.5 25.0282 1.5 26.639 3.11091C27.5372 4.00903 27.9346 5.21235 28.1104 7" stroke="#006C17" stroke-width="1.5" stroke-linecap="round"/>
</svg>
