<svg width="24" height="24" viewBox="0 0 24 24" fill="none" xmlns="http://www.w3.org/2000/svg">
<path d="M22.5 4.41667C22.5 14.4038 14.4038 22.5 4.41667 22.5C3.96608 22.5 3.51934 22.4835 3.07701 22.4511C2.56939 22.4139 2.31557 22.3954 2.08453 22.2624C1.89318 22.1522 1.7117 21.9569 1.61579 21.758C1.5 21.5179 1.5 21.2378 1.5 20.6777V17.3908C1.5 16.9197 1.5 16.6842 1.57753 16.4823C1.64601 16.3039 1.75724 16.1452 1.90145 16.0199C2.0647 15.878 2.28605 15.7975 2.72874 15.6365L6.47006 14.276C6.98512 14.0888 7.24265 13.9951 7.48698 14.011C7.70243 14.025 7.90976 14.0986 8.0859 14.2234C8.28566 14.3649 8.42665 14.5999 8.70862 15.07L9.66667 16.6667C12.7582 15.2665 15.2644 12.757 16.6667 9.66667L15.07 8.70862C14.5999 8.42665 14.3649 8.28566 14.2234 8.0859C14.0986 7.90976 14.025 7.70243 14.011 7.48698C13.9951 7.24265 14.0888 6.98512 14.276 6.47006L15.6365 2.72874C15.7975 2.28605 15.878 2.0647 16.0199 1.90145C16.1452 1.75724 16.3039 1.64601 16.4823 1.57753C16.6842 1.5 16.9197 1.5 17.3908 1.5H20.6777C21.2378 1.5 21.5179 1.5 21.758 1.61579C21.9569 1.7117 22.1522 1.89318 22.2624 2.08453C22.3954 2.31558 22.4139 2.56939 22.4511 3.07702C22.4835 3.51934 22.5 3.96608 22.5 4.41667Z" stroke="#006C17" stroke-width="2" stroke-linecap="round" stroke-linejoin="round"/>
</svg>
